<?xml version="1.0" encoding="iso-8859-1"?>
<!-- Generator: Adobe Illustrator 19.0.0, SVG Export Plug-In . SVG Version: 6.00 Build 0)  -->
<svg version="1.1" id="Capa_1" xmlns="http://www.w3.org/2000/svg" xmlns:xlink="http://www.w3.org/1999/xlink" x="0px" y="0px"
	 viewBox="0 0 511.998 511.998" style="enable-background:new 0 0 511.998 511.998;" xml:space="preserve">
<g>
	<g>
		<circle cx="139.6" cy="267.593" r="11.636"/>
	</g>
</g>
<g>
	<g>
		<circle cx="372.35" cy="337.423" r="11.636"/>
	</g>
</g>
<g>
	<g>
		<path d="M465.418,105.301c-29.568-26.461-69.364-39.063-109.103-34.63C295.05,77.513,243.78,126.56,234.413,187.279
			c-8.518,55.133,16.198,110.022,62.964,139.846c3.223,2.048,5.143,5.62,5.143,9.565v12.369c0,19.247,15.663,34.909,34.909,34.909
			h11.636c0,5.446,3.805,9.798,8.855,11.078c-2.036,9.1-5.143,17.769-9.391,25.809c-3.514-1.187-7.203-1.978-11.101-1.978
			c-19.247,0-34.909,15.663-34.909,34.909c0,3.91,0.791,7.599,1.978,11.101c-14.534,7.668-30.976,12.183-48.524,12.183
			c-3.968,0-7.866-0.256-11.706-0.71c-0.396-18.921-15.837-34.199-34.851-34.199c-8.669,0-16.512,3.293-22.633,8.553
			c-11.776-10.403-21.155-23.401-27.311-38.097c9.065-6.319,15.034-16.78,15.034-28.625c0-15.151-9.763-27.951-23.273-32.768V325.81
			c6.435,0,11.636-5.213,11.636-11.636h11.636c19.247,0,34.909-15.663,34.909-34.909v-25.728c0-6.423-5.201-11.636-11.636-11.636
			c-6.435,0-11.636,5.213-11.636,11.636v25.728c0,6.412-5.213,11.636-11.636,11.636h-69.83c-6.423,0-11.636-5.225-11.636-11.636
			v-12.369c0-11.939-5.958-22.854-15.907-29.196c-39.599-25.239-59.695-69.958-52.468-116.701
			c7.587-49.07,47.151-88.669,96.186-96.291c50.362-7.855,99.479,17.117,122.438,62.01c2.932,5.725,9.961,8.017,15.663,5.062
			c5.725-2.921,7.994-9.937,5.073-15.651c-27.543-53.876-86.609-83.77-146.735-74.426C58.343,10.86,10.797,58.453,1.662,117.437
			c-8.518,55.156,16.186,110.068,62.964,139.892c3.223,2.048,5.143,5.62,5.143,9.565v12.369c0,19.247,15.663,34.909,34.909,34.909
			h11.636c0,6.423,5.201,11.636,11.636,11.636v25.414c-13.521,4.817-23.273,17.617-23.273,32.768
			c0,18.304,14.196,33.187,32.14,34.63c8.064,20.724,21.353,38.784,38.272,52.655c-0.326,1.897-0.582,3.817-0.582,5.807
			c0,19.247,15.663,34.909,34.909,34.909c11.066,0,20.817-5.271,27.229-13.324c6.319,1.001,12.73,1.676,19.328,1.676
			c23.005,0,44.521-6.249,63.174-16.943c5.33,3.305,11.567,5.306,18.281,5.306c19.247,0,34.909-15.663,34.909-34.909
			c0-6.726-2.001-12.951-5.306-18.281c6.993-12.207,12.055-25.623,14.72-39.901h2.223c6.435,0,11.636-5.213,11.636-11.636h11.636
			c19.247,0,34.909-15.663,34.909-34.909v-12.358c0-3.887,1.908-7.529,4.98-9.484c40.622-25.821,64.861-69.853,64.861-117.818
			C511.998,169.72,495.021,131.773,465.418,105.301z M139.6,395.605c-6.423,0-11.636-5.213-11.636-11.636
			c0-6.412,5.213-11.636,11.636-11.636s11.636,5.225,11.636,11.636S146.023,395.605,139.6,395.605z M209.418,488.707
			c-6.423,0-11.636-5.225-11.636-11.636s5.213-11.636,11.636-11.636s11.636,5.225,11.636,11.636S215.841,488.707,209.418,488.707z
			 M337.429,465.434c-6.423,0-11.636-5.225-11.636-11.636s5.213-11.636,11.636-11.636s11.636,5.225,11.636,11.636
			S343.853,465.434,337.429,465.434z M434.663,307.576c-9.868,6.284-15.767,17.164-15.767,29.126v12.358
			c0,6.412-5.213,11.636-11.636,11.636h-69.83c-6.423,0-11.636-5.225-11.636-11.636V336.69c0-11.939-5.958-22.854-15.907-29.196
			c-39.587-25.239-59.683-69.935-52.468-116.666c7.796-50.525,50.467-91.322,101.492-97.024c4.561-0.5,9.1-0.756,13.603-0.756
			c28.695,0,55.773,10.275,77.393,29.615c24.669,22.051,38.819,53.679,38.819,86.749
			C488.725,249.37,468.513,286.072,434.663,307.576z"/>
	</g>
</g>
<g>
	<g>
		<path d="M139.6,46.49c-51.34,0-93.103,41.763-93.103,93.103s41.763,93.103,93.103,93.103s93.103-41.775,93.103-93.103
			S190.939,46.49,139.6,46.49z M139.6,209.411c-38.505,0-69.83-31.325-69.83-69.818s31.325-69.818,69.83-69.818
			c38.505,0,69.83,31.325,69.83,69.818S178.104,209.411,139.6,209.411z"/>
	</g>
</g>
<g>
	<g>
		<path d="M372.35,116.32c-51.34,0-93.103,41.763-93.103,93.103s41.763,93.103,93.103,93.103c51.34,0,93.103-41.775,93.103-93.114
			S423.678,116.32,372.35,116.32z M372.35,279.241c-38.505,0-69.83-31.325-69.83-69.818s31.325-69.818,69.83-69.818
			c38.505,0,69.83,31.325,69.83,69.818S410.855,279.241,372.35,279.241z"/>
	</g>
</g>
<g>
</g>
<g>
</g>
<g>
</g>
<g>
</g>
<g>
</g>
<g>
</g>
<g>
</g>
<g>
</g>
<g>
</g>
<g>
</g>
<g>
</g>
<g>
</g>
<g>
</g>
<g>
</g>
<g>
</g>
</svg>
