<?xml version="1.0" encoding="iso-8859-1"?>
<!-- Generator: Adobe Illustrator 19.0.0, SVG Export Plug-In . SVG Version: 6.00 Build 0)  -->
<svg version="1.1" id="Capa_1" xmlns="http://www.w3.org/2000/svg" xmlns:xlink="http://www.w3.org/1999/xlink" x="0px" y="0px"
	 viewBox="0 0 512 512" style="enable-background:new 0 0 512 512;" xml:space="preserve">
<g>
	<g>
		<path d="M325.818,465.455H221.091V290.909c0-6.435-5.213-11.636-11.636-11.636H93.091c-6.423,0-11.636,5.201-11.636,11.636
			v174.545H58.182V256c0-6.435-5.213-11.636-11.636-11.636S34.909,249.565,34.909,256v221.091c0,6.435,5.213,11.636,11.636,11.636
			h46.545h116.364h116.364c6.423,0,11.636-5.201,11.636-11.636S332.241,465.455,325.818,465.455z M197.818,465.455h-93.091V302.545
			h93.091V465.455z"/>
	</g>
</g>
<g>
	<g>
		<path d="M453.26,171.951l-34.351-22.214V46.545c6.423,0,11.636-5.201,11.636-11.636c0-6.435-5.213-11.636-11.636-11.636h-11.636
			h-46.545h-11.636c-6.423,0-11.636,5.201-11.636,11.636c0,6.435,5.213,11.636,11.636,11.636v34.909
			c0,6.435,5.213,11.636,11.636,11.636s11.636-5.201,11.636-11.636V46.545h23.273v88.134L281.868,61.068
			c-29.335-19.002-68.945-18.991-98.269-0.012L12.218,171.951C4.561,176.884,0,185.274,0,194.385
			c0,14.732,11.985,26.706,26.705,26.706h43.113c6.423,0,11.636-5.201,11.636-11.636c0-6.435-5.213-11.636-11.636-11.636H26.705
			c-1.897,0-3.433-1.536-3.433-3.433c0-1.175,0.582-2.246,1.571-2.886L196.236,80.593c21.772-14.092,51.2-14.103,72.972,0.012
			L440.611,191.5c0.989,0.64,1.571,1.711,1.571,2.886c0,1.897-1.536,3.433-3.433,3.433h-43.113c-6.423,0-11.636,5.201-11.636,11.636
			c0,6.435,5.213,11.636,11.636,11.636h11.636v11.636c0,6.435,5.213,11.636,11.636,11.636c6.423,0,11.636-5.201,11.636-11.636
			v-11.636h8.204c14.72,0,26.705-11.974,26.705-26.706C465.455,185.274,460.893,176.884,453.26,171.951z"/>
	</g>
</g>
<g>
	<g>
		<circle cx="174.545" cy="384" r="11.636"/>
	</g>
</g>
<g>
	<g>
		<circle cx="430.545" cy="418.909" r="11.636"/>
	</g>
</g>
<g>
	<g>
		<path d="M337.455,279.273H256c-6.423,0-11.636,5.201-11.636,11.636v116.364c0,6.435,5.213,11.636,11.636,11.636h58.182
			c6.423,0,11.636-5.201,11.636-11.636v-81.455c0-6.435-5.213-11.636-11.636-11.636s-11.636,5.201-11.636,11.636v69.818h-34.909
			v-93.091h69.818c6.423,0,11.636-5.201,11.636-11.636C349.091,284.474,343.878,279.273,337.455,279.273z"/>
	</g>
</g>
<g>
	<g>
		<path d="M232.727,128c-19.247,0-34.909,15.663-34.909,34.909c0,19.247,15.663,34.909,34.909,34.909
			c19.247,0,34.909-15.663,34.909-34.909C267.636,143.663,251.974,128,232.727,128z M232.727,174.545
			c-6.412,0-11.636-5.213-11.636-11.636s5.225-11.636,11.636-11.636c6.412,0,11.636,5.213,11.636,11.636
			S239.139,174.545,232.727,174.545z"/>
	</g>
</g>
<g>
	<g>
		<path d="M500.364,349.091h-11.636v-34.909c0-32.081-26.1-58.182-58.182-58.182c-32.081,0-58.182,26.1-58.182,58.182v34.909
			h-11.636c-6.423,0-11.636,5.201-11.636,11.636v93.091c0,19.247,15.663,34.909,34.909,34.909h93.091
			c19.247,0,34.909-15.663,34.909-34.909v-93.091C512,354.292,506.787,349.091,500.364,349.091z M395.636,314.182
			c0-19.247,15.663-34.909,34.909-34.909s34.909,15.663,34.909,34.909v34.909h-69.818V314.182z M488.727,453.818
			c0,6.423-5.225,11.636-11.636,11.636H384c-6.412,0-11.636-5.213-11.636-11.636v-81.455h116.364V453.818z"/>
	</g>
</g>
<g>
</g>
<g>
</g>
<g>
</g>
<g>
</g>
<g>
</g>
<g>
</g>
<g>
</g>
<g>
</g>
<g>
</g>
<g>
</g>
<g>
</g>
<g>
</g>
<g>
</g>
<g>
</g>
<g>
</g>
</svg>
