<?xml version="1.0" encoding="iso-8859-1"?>
<!-- Generator: Adobe Illustrator 19.0.0, SVG Export Plug-In . SVG Version: 6.00 Build 0)  -->
<svg version="1.1" id="Capa_1" xmlns="http://www.w3.org/2000/svg" xmlns:xlink="http://www.w3.org/1999/xlink" x="0px" y="0px"
	 viewBox="0 0 512 512" style="enable-background:new 0 0 512 512;" xml:space="preserve">
<g>
	<g>
		<path d="M360.727,418.909c6.435,0,11.636-5.201,11.636-11.636V69.818h69.818c19.247,0,34.909-15.663,34.909-34.909V11.636
			C477.091,5.201,471.889,0,465.455,0H46.545c-6.435,0-11.636,5.201-11.636,11.636v23.273c0,19.247,15.663,34.909,34.909,34.909
			v372.364c-19.247,0-34.909,15.663-34.909,34.909v23.273c0,6.435,5.201,11.636,11.636,11.636h418.909
			c6.435,0,11.636-5.201,11.636-11.636v-23.273c0-19.247-15.663-34.909-34.909-34.909V104.727c0-6.435-5.201-11.636-11.636-11.636
			s-11.636,5.201-11.636,11.636v349.091c0,6.435,5.201,11.636,11.636,11.636h11.636c6.423,0,11.636,5.213,11.636,11.636v11.636
			H58.182v-11.636c0-6.423,5.213-11.636,11.636-11.636H384c6.435,0,11.636-5.201,11.636-11.636s-5.201-11.636-11.636-11.636h-81.455
			V69.818h46.545v337.455C349.091,413.708,354.292,418.909,360.727,418.909z M279.273,442.182H93.091v-93.091h46.545v58.182
			c0,6.435,5.201,11.636,11.636,11.636c6.435,0,11.636-5.201,11.636-11.636v-58.182h46.545v58.182
			c0,6.435,5.201,11.636,11.636,11.636c6.435,0,11.636-5.201,11.636-11.636V69.818h46.545V442.182z M209.455,186.182v139.636H93.091
			V186.182H209.455z M162.909,162.909V69.818h46.545v93.091H162.909z M128,46.545c-6.435,0-11.636,5.201-11.636,11.636
			c0,6.435,5.201,11.636,11.636,11.636h11.636v93.091H93.091V58.182c0-6.435-5.201-11.636-11.636-11.636H69.818
			c-6.423,0-11.636-5.213-11.636-11.636V23.273h395.636v11.636c0,6.423-5.213,11.636-11.636,11.636H128z"/>
	</g>
</g>
<g>
	<g>
		<path d="M186.182,244.364c0-19.247-15.663-34.909-34.909-34.909c-19.247,0-34.909,15.663-34.909,34.909
			c0,15.302,9.961,28.183,23.68,32.896c-0.128,0.675-0.407,1.292-0.407,2.013v11.636c0,6.435,5.201,11.636,11.636,11.636
			c6.435,0,11.636-5.201,11.636-11.636v-11.636c0-0.721-0.279-1.338-0.407-2.013C176.221,272.547,186.182,259.665,186.182,244.364z
			 M151.273,256c-6.423,0-11.636-5.213-11.636-11.636s5.213-11.636,11.636-11.636c6.423,0,11.636,5.213,11.636,11.636
			S157.696,256,151.273,256z"/>
	</g>
</g>
<g>
</g>
<g>
</g>
<g>
</g>
<g>
</g>
<g>
</g>
<g>
</g>
<g>
</g>
<g>
</g>
<g>
</g>
<g>
</g>
<g>
</g>
<g>
</g>
<g>
</g>
<g>
</g>
<g>
</g>
</svg>
