<?xml version="1.0" encoding="iso-8859-1"?>
<!-- Generator: Adobe Illustrator 19.0.0, SVG Export Plug-In . SVG Version: 6.00 Build 0)  -->
<svg version="1.1" id="Capa_1" xmlns="http://www.w3.org/2000/svg" xmlns:xlink="http://www.w3.org/1999/xlink" x="0px" y="0px"
	 viewBox="0 0 512.006 512.006" style="enable-background:new 0 0 512.006 512.006;" xml:space="preserve">
<g>
	<g>
		<circle cx="221.094" cy="174.54" r="11.636"/>
	</g>
</g>
<g>
	<g>
		<circle cx="290.912" cy="174.54" r="11.636"/>
	</g>
</g>
<g>
	<g>
		<circle cx="256.003" cy="58.176" r="11.636"/>
	</g>
</g>
<g>
	<g>
		<path d="M267.639,221.085h-23.273c-6.423,0-11.636,5.201-11.636,11.636c0,6.435,5.213,11.636,11.636,11.636h23.273
			c6.423,0,11.636-5.201,11.636-11.636C279.276,226.287,274.063,221.085,267.639,221.085z"/>
	</g>
</g>
<g>
	<g>
		<path d="M407.055,341.836l-69.597-13.917v-25.367c0-6.435-5.213-11.636-11.636-11.636s-11.636,5.201-11.636,11.636v27.718
			l-16.838,8.425c-5.748,2.874-8.076,9.868-5.201,15.616c2.036,4.073,6.144,6.423,10.415,6.423c1.745,0,3.526-0.396,5.19-1.222
			l19.7-9.856l75.031,14.999c16.268,3.247,28.067,17.641,28.067,34.234v78.208c0,6.423-5.225,11.636-11.636,11.636H93.094
			c-6.412,0-11.636-5.213-11.636-11.636v-78.208c0-16.593,11.799-30.988,28.067-34.234l75.031-14.999l59.811,29.905v62.627
			c0,6.435,5.213,11.636,11.636,11.636s11.636-5.201,11.636-11.636V372.37c0-4.41-2.49-8.436-6.435-10.415l-63.383-31.697v-27.706
			c0-6.435-5.213-11.636-11.636-11.636s-11.636,5.201-11.636,11.636v25.367l-69.597,13.917
			c-27.101,5.411-46.767,29.417-46.767,57.053v78.208c0,19.247,15.663,34.909,34.909,34.909h325.818
			c19.247,0,34.909-15.663,34.909-34.909v-78.208C453.821,371.252,434.156,347.247,407.055,341.836z"/>
	</g>
</g>
<g>
	<g>
		<path d="M372.367,430.551h-23.273c-6.423,0-11.636,5.201-11.636,11.636s5.213,11.636,11.636,11.636h23.273
			c6.423,0,11.636-5.201,11.636-11.636S378.79,430.551,372.367,430.551z"/>
	</g>
</g>
<g>
	<g>
		<path d="M185.952,370.077c-1.245-6.307-7.343-10.415-13.684-9.123l-58.182,11.636c-6.307,1.257-10.391,7.389-9.123,13.696
			c1.094,5.539,5.958,9.356,11.392,9.356c0.756,0,1.524-0.07,2.292-0.233l58.182-11.636
			C183.136,382.516,187.22,376.384,185.952,370.077z"/>
	</g>
</g>
<g>
	<g>
		<path d="M397.92,372.591l-58.182-11.636c-6.307-1.303-12.439,2.816-13.696,9.123c-1.257,6.307,2.828,12.428,9.123,13.696
			l58.182,11.636c0.78,0.163,1.548,0.233,2.304,0.233c5.434,0,10.298-3.817,11.392-9.356
			C408.3,379.98,404.215,373.859,397.92,372.591z"/>
	</g>
</g>
<g>
	<g>
		<path d="M371.424,30.621L282.127,3.823c-16.954-5.097-35.293-5.097-52.259,0l-89.286,26.799
			c-14.255,4.271-24.215,17.664-24.215,32.547c0,6.598,1.908,13.021,5.539,18.583l17.734,27.148v19.107
			c0,23.203,8.692,77.859,8.983,79.651c2.223,19.503,10.019,37.9,22.563,53.201l2.49,3.037
			c20.154,24.564,50.153,38.656,82.327,38.656s62.173-14.092,82.304-38.644l2.502-3.06c12.544-15.29,20.34-33.699,22.493-52.666
			c0,0,2.351-14.697,4.643-32.105c0.838-6.377-3.642-12.218-10.007-13.056c-6.307-0.803-12.218,3.642-13.056,10.007
			c-2.246,17.036-4.55,31.406-4.62,31.988c-1.711,15.046-7.75,29.254-17.431,41.065l-2.502,3.06
			c-15.709,19.142-39.156,30.138-64.326,30.138c-25.169,0-48.617-10.985-64.314-30.15l-2.49-3.037
			c-9.693-11.834-15.721-26.031-17.513-41.6c-0.093-0.547-8.774-55.133-8.774-76.497v-10.927h162.909
			c6.423,0,11.636-5.201,11.636-11.636c0-6.435-5.213-11.636-11.636-11.636h-168.25l-16.175-24.762
			c-1.152-1.769-1.757-3.782-1.757-5.865c0-4.689,3.142-8.913,7.633-10.252l89.286-26.799c12.625-3.793,26.263-3.793,38.877,0
			l89.297,26.799c4.492,1.338,7.633,5.562,7.633,10.252c0,2.083-0.605,4.108-1.734,5.853l-19.642,30.045
			c-1.233,1.885-1.897,4.096-1.897,6.365v15.453c-43.613,20.969-108.032,24.879-159.604,9.169c-6.109-1.85-12.637,1.594-14.522,7.75
			c-1.873,6.144,1.594,12.649,7.75,14.522c60.451,18.385,134.225,12.719,183.564-14.103c3.759-2.048,6.086-5.969,6.086-10.228
			v-19.095l17.745-27.159c3.619-5.551,5.527-11.974,5.527-18.572C395.639,48.285,385.679,34.892,371.424,30.621z"/>
	</g>
</g>
<g>
</g>
<g>
</g>
<g>
</g>
<g>
</g>
<g>
</g>
<g>
</g>
<g>
</g>
<g>
</g>
<g>
</g>
<g>
</g>
<g>
</g>
<g>
</g>
<g>
</g>
<g>
</g>
<g>
</g>
</svg>
