<?xml version="1.0" encoding="iso-8859-1"?>
<!-- Generator: Adobe Illustrator 19.0.0, SVG Export Plug-In . SVG Version: 6.00 Build 0)  -->
<svg version="1.1" id="Capa_1" xmlns="http://www.w3.org/2000/svg" xmlns:xlink="http://www.w3.org/1999/xlink" x="0px" y="0px"
	 viewBox="0 0 512 512" style="enable-background:new 0 0 512 512;" xml:space="preserve">
<g>
	<g>
		<path d="M418.909,418.909H267.636v-128h11.636v23.273c0,6.435,5.213,11.636,11.636,11.636s11.636-5.201,11.636-11.636v-69.818
			c0-6.435-5.213-11.636-11.636-11.636s-11.636,5.201-11.636,11.636v23.273h-46.545v-23.273c0-6.435-5.213-11.636-11.636-11.636
			c-6.423,0-11.636,5.201-11.636,11.636v69.818c0,6.435,5.213,11.636,11.636,11.636c6.423,0,11.636-5.201,11.636-11.636v-23.273
			h11.636v128h-93.091V221.091c0-57.751,46.988-104.727,104.727-104.727s104.727,46.976,104.727,104.727V384
			c0,6.435,5.213,11.636,11.636,11.636S384,390.435,384,384V221.091c0-70.575-57.425-128-128-128s-128,57.425-128,128v209.431
			c0,0.012,0,0.023,0,0.023c0,6.435,5.213,11.636,11.636,11.636h279.273c6.412,0,11.636,5.213,11.636,11.636v34.909H81.454v-34.909
			c0-6.423,5.225-11.636,11.636-11.636c6.423,0,11.636-5.201,11.636-11.636s-5.213-11.636-11.636-11.636
			c-19.247,0-34.909,15.663-34.909,34.909v46.545c0,6.435,5.213,11.636,11.636,11.636h372.364c6.423,0,11.636-5.201,11.636-11.636
			v-46.545C453.818,434.572,438.156,418.909,418.909,418.909z"/>
	</g>
</g>
<g>
	<g>
		<path d="M256,139.636c-44.916,0-81.455,36.55-81.455,81.455c0,6.435,5.213,11.636,11.636,11.636s11.636-5.201,11.636-11.636
			c0-32.081,26.1-58.182,58.182-58.182c6.423,0,11.636-5.201,11.636-11.636C267.636,144.838,262.423,139.636,256,139.636z"/>
	</g>
</g>
<g>
	<g>
		<path d="M256,0c-6.423,0-11.636,5.201-11.636,11.636v46.545c0,6.435,5.213,11.636,11.636,11.636s11.636-5.201,11.636-11.636
			V11.636C267.636,5.201,262.423,0,256,0z"/>
	</g>
</g>
<g>
	<g>
		<path d="M465.455,209.455h-46.545c-6.423,0-11.636,5.201-11.636,11.636c0,6.435,5.213,11.636,11.636,11.636h46.545
			c6.423,0,11.636-5.201,11.636-11.636C477.091,214.656,471.878,209.455,465.455,209.455z"/>
	</g>
</g>
<g>
	<g>
		<path d="M93.091,209.455H46.545c-6.423,0-11.636,5.201-11.636,11.636c0,6.435,5.213,11.636,11.636,11.636h46.545
			c6.423,0,11.636-5.201,11.636-11.636C104.727,214.656,99.514,209.455,93.091,209.455z"/>
	</g>
</g>
<g>
	<g>
		<path d="M149.039,97.676l-32.919-32.919c-4.55-4.55-11.904-4.55-16.454,0s-4.55,11.904,0,16.454l32.919,32.919
			c2.269,2.269,5.248,3.409,8.227,3.409s5.958-1.14,8.227-3.409C153.588,109.58,153.588,102.225,149.039,97.676z"/>
	</g>
</g>
<g>
	<g>
		<path d="M412.335,64.768c-4.55-4.55-11.904-4.55-16.454,0l-32.919,32.908c-4.55,4.55-4.55,11.904,0,16.454
			c2.281,2.269,5.26,3.409,8.227,3.409c2.979,0,5.958-1.14,8.227-3.409l32.919-32.908C416.884,76.672,416.884,69.318,412.335,64.768
			z"/>
	</g>
</g>
<g>
</g>
<g>
</g>
<g>
</g>
<g>
</g>
<g>
</g>
<g>
</g>
<g>
</g>
<g>
</g>
<g>
</g>
<g>
</g>
<g>
</g>
<g>
</g>
<g>
</g>
<g>
</g>
<g>
</g>
</svg>
